<svg version="1.1" xmlns="http://www.w3.org/2000/svg" xmlns:xlink="http://www.w3.org/1999/xlink" width="183.36001" height="104.82655" viewBox="0,0,183.36001,104.82655"><defs><radialGradient cx="316.4954" cy="177.31623" r="91.68" gradientUnits="userSpaceOnUse" id="color-1"><stop offset="0" stop-color="#000000"/><stop offset="1" stop-color="#de5833"/></radialGradient></defs><g transform="translate(-224.8154,-124.90296)"><g data-paper-data="{&quot;isPaintingLayer&quot;:true}" stroke="none" stroke-linecap="butt" stroke-linejoin="miter" stroke-miterlimit="10" stroke-dasharray="" stroke-dashoffset="0" style="mix-blend-mode: normal"><path d="M227.90852,229.72951c-1.70828,0 -3.09312,-1.04017 -3.09312,-2.32328v-100.17999c0,-1.28311 1.38484,-2.32328 3.09312,-2.32328h177.17377c1.70828,0 3.09312,1.04017 3.09312,2.32328v100.17999c0,1.28311 -1.38484,2.32328 -3.09312,2.32328z" fill="url(#color-1)" fill-rule="nonzero" stroke-width="0"/><path d="M329.10842,182.4664l4.86945,4.81652v0.16055h-1.92661l-0.05294,-0.05381l-4.33486,-4.334v4.3878h-1.60551v-13.32483h1.60551v7.81317l3.79941,-3.90702h2.08716zM323.17066,185.0543l1.07005,1.07092l-0.05381,0.05294c-0.85569,0.91036 -2.08629,1.39202 -3.37069,1.39202h-0.05381c-2.46206,0 -4.92326,-1.49876 -4.92326,-4.87032c0,-2.88991 1.97954,-4.86945 4.92326,-4.86945c1.2844,0 2.40826,0.42698 3.37156,1.33647l0.05294,0.05381l-1.01624,1.07005l-0.05381,-0.05294c-0.6422,-0.58926 -1.44495,-0.91036 -2.30065,-0.91036c-1.92661,0 -3.31862,1.39202 -3.31862,3.37156c0,2.35445 1.65931,3.37156 3.31862,3.37156c0.96244,0 1.81899,-0.3211 2.40826,-0.9095zM312.30616,178.04475h1.60551v9.41868h-1.49789l-0.05381,-1.44495l-0.05381,0.10674c-0.74895,0.9095 -1.8728,1.49876 -3.1034,1.49876h-0.05381c-2.515,0 -4.12051,-1.71312 -4.12051,-4.38867v-5.19056h1.60551v5.19056c0,1.81986 1.07005,2.88991 2.8361,2.88991c1.65931,-0.05381 2.8361,-1.33821 2.8361,-3.05046zM303.14176,180.64654c0,3.37156 -2.03335,6.79693 -6.68932,6.79693h-4.87032v-13.3795h4.87032c4.60216,0 6.68932,3.42537 6.68932,6.58257zM301.48245,180.59274c0,-2.35532 -1.60551,-4.87032 -5.03,-4.87032h-3.15807v10.00881h3.21101c3.42537,0 4.97707,-2.56881 4.97707,-5.13762zM384.75784,181.60984v-1.44495h5.67221v5.2973c-1.27652,1.43622 -3.1085,2.25486 -5.03,2.24771h-0.10761c-5.13762,0 -6.95661,-3.63886 -6.95661,-6.79606c-0.05381,-2.03422 0.6422,-3.85321 1.92661,-5.13762c1.2306,-1.2844 2.94285,-1.92661 4.97707,-1.92661c1.8728,0 3.58505,0.6422 4.86945,1.92661l0.05381,0.05294l-0.9633,1.12385l-0.05381,-0.05294c-1.07005,-0.9633 -2.40826,-1.49876 -3.85321,-1.49876c-3.58505,0 -5.24436,2.8361 -5.24436,5.45872c0,2.56881 1.65931,5.19056 5.29817,5.19056c1.33734,0 2.56881,-0.48165 3.58505,-1.33734v-3.10427h-4.12051zM340.39382,174.06484c4.60216,0 6.68932,3.4245 6.68932,6.5817c0,3.37156 -2.03335,6.79693 -6.68932,6.79693h-4.87032v-13.3795h4.87032zM340.44676,175.72328h-3.1572v10.00794h3.1572c3.42537,0 4.97707,-2.56881 4.97707,-5.13762c0,-2.35532 -1.60551,-4.87032 -4.97707,-4.87032zM401.9515,182.75279c0,2.8361 -2.08716,4.86945 -4.92326,4.86945c-2.83697,0 -4.87032,-2.03335 -4.87032,-4.86945c0,-2.8361 2.03335,-4.92326 4.87032,-4.92326c2.88991,0 4.92326,2.03335 4.92326,4.92326zM397.08118,179.27449c-1.97954,0 -3.31776,1.44495 -3.31776,3.47831c0,1.98041 1.39115,3.37156 3.26482,3.37156c1.92661,0 3.31776,-1.39115 3.31776,-3.37156c0,-1.98041 -1.39115,-3.42537 -3.26482,-3.47831zM356.19373,183.07476v-5.03h1.60551v9.41868h-1.49789l-0.05381,-1.44495l-0.05381,0.10674c-0.74895,0.9095 -1.8728,1.49876 -3.1034,1.49876h-0.05381c-2.4612,0 -4.0667,-1.71312 -4.0667,-4.38867v-5.19056h1.60551v5.19056c0,1.81986 1.07005,2.88991 2.8361,2.88991c1.65931,-0.05381 2.8361,-1.33821 2.8361,-3.05046zM367.11203,185.05344l1.07005,1.07092l-0.05381,0.05294c-0.85569,0.91036 -2.08716,1.39202 -3.37156,1.39202h-0.05294c-2.46206,0 -4.92326,-1.49876 -4.92326,-4.87032c0,-2.88991 1.97954,-4.86945 4.92326,-4.86945c1.2844,0 2.40826,0.42785 3.37156,1.33734l0.05294,0.05381l-1.01624,1.07005l-0.05381,-0.05294c-0.6422,-0.58926 -1.44495,-0.91036 -2.30151,-0.91036c-1.92661,0 -3.31776,1.39202 -3.31776,3.37156c0,2.35445 1.65931,3.37156 3.31776,3.37156c0.9633,0 1.81986,-0.3211 2.40826,-0.9095zM373.0498,182.4664l4.86945,4.81652v0.16055h-1.92661l-0.05381,-0.05381l-4.334,-4.334v4.3878h-1.60551v-13.32483h1.60551v7.81317l3.79941,-3.90702h2.08716z" fill="#ffffff" fill-rule="nonzero" stroke-width="1"/><path d="M238.0485,180c0,-12.70172 10.29606,-22.99778 22.99778,-22.99778c12.70172,0 22.99778,10.29606 22.99778,22.99778c0,12.70172 -10.29606,22.99778 -22.99778,22.99778c-12.70172,0 -22.99778,-10.29606 -22.99778,-22.99778z" fill="#de5833" fill-rule="evenodd" stroke-width="1"/><path d="M264.28072,197.60762c0,1.95698 -6.2068,1.93442 -9.19043,0.8149c-0.15422,-0.0589 -0.27183,-0.1868 -0.31763,-0.3454c-0.27771,-0.93293 -1.05877,-3.66923 -2.9793,-11.37132c-2.26767,-9.08976 -3.95215,-16.49505 4.56224,-18.80958c0.08244,-0.02256 0.11542,-0.12584 0.05207,-0.18311c-0.98066,-0.89301 -2.64605,-1.05182 -4.27585,-0.72899c-0.11282,0.02256 -0.18572,-0.11629 -0.09807,-0.19092c0.75849,-0.64394 1.333,-0.77672 1.65063,-0.788c0.10067,-0.00434 0.18659,-0.12931 0.12323,-0.20741c-0.33585,-0.4183 -0.90689,-0.69427 -1.37726,-0.85396c-0.1215,-0.04079 -0.11629,-0.26903 0.01128,-0.28639c0.7151,-0.09633 1.63067,-0.14927 2.32928,-0.03818c1.37553,0.22998 2.8795,1.26444 4.10315,1.91532c1.09955,0.58319 2.65646,18.6742 2.52976,19.17668c-0.69427,2.76407 0.83139,7.0486 2.34924,10.08865c0.57104,1.13774 0.52765,1.1794 0.52765,1.35904z" fill="#dddddd" fill-rule="evenodd" stroke-width="1"/><path d="M265.44797,198.86512c-1.03273,0.40441 -3.0548,0.58406 -4.22205,0.58406c-1.71225,0 -4.17779,-0.26903 -5.076,-0.67344c-0.55455,-1.70791 -2.21473,-7 -3.85495,-13.72143c-0.05294,-0.22043 -0.10674,-0.43913 -0.16055,-0.65696l-0.00087,-0.00521c-1.94917,-7.96157 -3.54079,-14.4643 5.18448,-16.5072c0.07897,-0.01909 0.11803,-0.11369 0.06596,-0.17704c-1.00149,-1.18721 -2.87689,-1.57687 -5.2487,-0.75849c-0.0972,0.03385 -0.18138,-0.06422 -0.1215,-0.14753c0.46516,-0.64133 1.37466,-1.13427 1.82247,-1.35036c0.09286,-0.04426 0.08765,-0.18051 -0.01041,-0.21089c-0.44381,-0.13895 -0.89677,-0.24683 -1.35557,-0.32284c-0.13278,-0.0217 -0.14493,-0.24994 -0.01128,-0.26816c3.36201,-0.45128 6.8733,0.55715 8.63502,2.77709c0.01562,0.02083 0.03992,0.03471 0.06596,0.04079c6.45153,1.38507 6.91322,11.58307 6.17035,12.04736c-0.14753,0.09199 -0.61617,0.03905 -1.23581,-0.03037c-2.51066,-0.28031 -7.48079,-0.8366 -3.3785,6.80908c0.04079,0.0755 -0.01302,0.1753 -0.09807,0.18832c-2.3128,0.36015 0.65088,7.60836 2.83003,12.38409z" fill="#ffffff" fill-rule="nonzero" stroke-width="1"/><path d="M269.08509,195.8702c-0.47905,0.0729 -2.62088,-0.40962 -3.83846,-0.86437c-0.00937,0.03306 -0.02217,0.06506 -0.03818,0.09546c-0.24039,0.4452 -1.79209,0.66824 -2.74845,0.68993c-0.63179,0.01475 -0.93987,-0.13972 -1.1308,-0.40875c-1.18373,1.00583 -3.45227,2.46293 -3.92611,2.15832c-0.90863,-0.58406 -1.76258,-5.08121 -1.07959,-6.03149c0.62571,-0.86958 3.21535,0.03124 4.75403,0.61443c0.24039,-0.40528 0.77845,-0.64047 1.75391,-0.81056c1.11431,-0.19353 1.60724,0.07637 1.86933,0.44694c1.25316,-1.03967 3.14158,-2.39437 3.63278,-2.16613c0.57798,0.26729 1.99864,6.08877 0.75155,6.27622z" fill="#3ca82b" fill-rule="nonzero" stroke-width="1"/><path d="M264.81618,191.89289c0.05207,0.09199 0.09286,0.18919 0.12844,0.28812c0.17357,0.48599 0.45562,2.02901 0.243,2.41086c-0.21436,0.38098 -1.6029,0.56496 -2.46033,0.57972c-0.85743,0.01475 -1.04922,-0.29854 -1.22279,-0.78366c-0.13885,-0.38792 -0.20655,-1.30176 -0.20568,-1.82333c-0.03471,-0.77585 0.2482,-1.04835 1.55777,-1.2601c0.96851,-0.15621 1.4814,0.02604 1.77647,0.33846c1.37553,-1.02752 3.67097,-2.47595 3.89487,-2.21126c1.11604,1.31999 1.25663,4.4633 1.01537,5.72775c-0.07897,0.41309 -3.77511,-0.40962 -3.77511,-0.85569c0,-1.8511 -0.47992,-2.35879 -0.95202,-2.41086zM256.72009,191.31491c0.30288,-0.47905 2.75713,0.11716 4.10489,0.71597c0,0 -0.27771,1.2549 0.16402,2.73283c0.12844,0.43218 -3.09993,2.35619 -3.5217,2.02554c-0.48686,-0.38272 -1.38334,-4.46764 -0.74721,-5.47434z" fill="#4cba3c" fill-rule="nonzero" stroke-width="1"/><path d="M257.90903,181.58381c0.19787,-0.8635 1.12385,-2.4907 4.42686,-2.45165c1.67059,-0.00694 3.74473,-0.00087 5.12026,-0.15708c1.56583,-0.17362 3.1029,-0.54754 4.57352,-1.11257c1.4302,-0.545 1.93789,-0.42351 2.1158,-0.0972c0.19526,0.35842 -0.03471,0.97806 -0.53459,1.54823c-0.95462,1.08914 -2.67035,1.93355 -5.70171,2.18349c-3.03137,0.24994 -5.03782,-0.56236 -5.90132,0.7611c-0.37317,0.57104 -0.08505,1.91619 2.84565,2.3397c3.95996,0.57191 7.21262,-0.6882 7.61443,0.0729c0.40181,0.7611 -1.91272,2.30932 -5.87962,2.34143c-3.96603,0.03298 -6.44459,-1.38855 -7.32284,-2.09497c-1.11518,-0.89648 -1.61418,-2.20345 -1.35644,-3.33338z" fill="#ffcc33" fill-rule="evenodd" stroke-width="1"/><g fill="#14307e" stroke-width="1" opacity="0.8"><path d="M263.13517,172.27361c0.26296,-0.14233 0.67952,-0.30722 1.33995,-0.29854c0.6179,0.00868 0.97806,0.16663 1.27139,0.29507l0.06075,0.02604c0.08244,0.03558 0.16315,-0.04947 0.11022,-0.1215c-0.26209,-0.35668 -0.6396,-0.67692 -1.44235,-0.67692c-0.80275,0 -1.29308,0.28031 -1.51438,0.6422c-0.05294,0.08592 0.08678,0.18225 0.17444,0.13365zM253.92044,172.60339c-0.77932,0.32631 -1.03099,0.67692 -1.182,0.91818c-0.05554,0.08852 -0.27163,0.07984 -0.27077,-0.02604c0.00174,-0.4452 0.41396,-1.12385 1.29048,-1.45103c0.98153,-0.36449 1.73395,-0.02864 2.0698,0.243c0.0729,0.05815 0.00955,0.15621 -0.08158,0.13538c-0.43305,-0.10327 -1.04575,-0.14493 -1.82507,0.18051z" fill-rule="nonzero"/><path d="M265.15724,177.0962c-0.68907,0 -1.24795,-0.55715 -1.24795,-1.24362c0,-0.68646 0.55889,-1.24362 1.24795,-1.24362c0.68907,0 1.24795,0.55715 1.24795,1.24362c0,0.68646 -0.55889,1.24362 -1.24795,1.24362zM266.03636,175.44036c0,-0.17854 -0.14473,-0.32327 -0.32327,-0.32327c-0.17854,0 -0.32327,0.14473 -0.32327,0.32327c0,0.17854 0.14473,0.32327 0.32327,0.32327c0.17854,0 0.32327,-0.14473 0.32327,-0.32327zM256.88585,176.71349c0,0.80102 -0.65088,1.45016 -1.4545,1.45016c-0.80181,0.00096 -1.45298,-0.64749 -1.45537,-1.44929c0,-0.80188 0.65262,-1.45103 1.45537,-1.45103c0.80188,0 1.4545,0.64914 1.4545,1.45016zM256.45714,176.2327c0.00634,-0.13873 -0.06418,-0.26969 -0.18349,-0.34076c-0.11931,-0.07108 -0.26804,-0.07073 -0.38702,0.00089c-0.11898,0.07162 -0.18889,0.20291 -0.18191,0.3416c0.0101,0.20074 0.17604,0.35818 0.37704,0.35772c0.201,-0.00046 0.36621,-0.15867 0.37538,-0.35946z" fill-rule="evenodd"/></g><path d="M241.73162,180c0,-10.6675 8.64716,-19.31466 19.31466,-19.31466c10.6675,0 19.31466,8.64716 19.31466,19.31466c0,10.6675 -8.64716,19.31466 -19.31466,19.31466c-10.6675,0 -19.31466,-8.64716 -19.31466,-19.31466zM239.93519,180c0,-11.65944 9.45165,-21.11109 21.11109,-21.11109c11.65944,0 21.11109,9.45165 21.11109,21.11109c0,11.65944 -9.45165,21.11109 -21.11109,21.11109c-11.65944,0 -21.11109,-9.45165 -21.11109,-21.11109z" fill="#ffffff" fill-rule="evenodd" stroke-width="1"/><path d="M261.04368,199.03869c10.51649,0 19.04129,-8.5248 19.04129,-19.04043c0,-10.51563 -8.5248,-19.04303 -19.04043,-19.04303c-10.51563,0 -19.04303,8.52653 -19.04303,19.04216c0,10.51563 8.52567,19.04129 19.04129,19.04129zM282.12526,179.99826c0,11.64208 -9.43864,21.07985 -21.08159,21.07985c-11.64295,0 -21.08072,-9.4369 -21.08072,-21.07898c0,-11.64208 9.4369,-21.08419 21.08072,-21.08419c11.64382,0 21.08245,9.4395 21.08245,21.08245z" fill="#ffffff" fill-rule="evenodd" stroke-width="1"/></g></g></svg>