<svg version="1.1" xmlns="http://www.w3.org/2000/svg" xmlns:xlink="http://www.w3.org/1999/xlink" width="183.36001" height="104.82655" viewBox="0,0,183.36001,104.82655"><defs><radialGradient cx="316.4954" cy="177.31623" r="91.68" gradientUnits="userSpaceOnUse" id="color-1"><stop offset="0" stop-color="#ea4335"/><stop offset="1" stop-color="#4285f4"/></radialGradient></defs><g transform="translate(-224.8154,-124.90296)"><g data-paper-data="{&quot;isPaintingLayer&quot;:true}" fill-rule="nonzero" stroke="none" stroke-linecap="butt" stroke-linejoin="miter" stroke-miterlimit="10" stroke-dasharray="" stroke-dashoffset="0" style="mix-blend-mode: normal"><path d="M227.90852,229.72951c-1.70828,0 -3.09312,-1.04017 -3.09312,-2.32328v-100.17999c0,-1.28311 1.38484,-2.32328 3.09312,-2.32328h177.17377c1.70828,0 3.09312,1.04017 3.09312,2.32328v100.17999c0,1.28311 -1.38484,2.32328 -3.09312,2.32328z" fill="url(#color-1)" stroke-width="0"/><g stroke-width="1"><path d="M308.24861,181.4092c0,7.72338 -6.04202,13.41461 -13.45694,13.41461c-7.41493,0 -13.45694,-5.69123 -13.45694,-13.41461c0,-7.77781 6.04202,-13.41461 13.45694,-13.41461c7.41493,0 13.45694,5.6368 13.45694,13.41461zM302.3578,181.4092c0,-4.82636 -3.50183,-8.1286 -7.56613,-8.1286c-4.0643,0 -7.56613,3.30224 -7.56613,8.1286c0,4.77797 3.50183,8.1286 7.56613,8.1286c4.0643,0 7.56613,-3.35668 7.56613,-8.1286z" fill="#ea4335"/><path d="M337.27932,181.4092c0,7.72338 -6.04202,13.41461 -13.45694,13.41461c-7.41493,0 -13.45694,-5.69123 -13.45694,-13.41461c0,-7.77176 6.04202,-13.41461 13.45694,-13.41461c7.41493,0 13.45694,5.6368 13.45694,13.41461zM331.3885,181.4092c0,-4.82636 -3.50183,-8.1286 -7.56613,-8.1286c-4.0643,0 -7.56613,3.30224 -7.56613,8.1286c0,4.77797 3.50183,8.1286 7.56613,8.1286c4.0643,0 7.56613,-3.35668 7.56613,-8.1286z" fill="#fbbc05"/><path d="M365.10041,168.80503v24.08339c0,9.90673 -5.84243,13.95288 -12.74932,13.95288c-6.50167,0 -10.41477,-4.34856 -11.89049,-7.90482l5.12876,-2.13497c0.91326,2.18335 3.15104,4.75983 6.75569,4.75983c4.42113,0 7.16091,-2.72768 7.16091,-7.86248v-1.92933h-0.20563c-1.31848,1.62693 -3.85866,3.04822 -7.06414,3.04822c-6.7073,0 -12.85214,-5.84243 -12.85214,-13.36017c0,-7.57218 6.14483,-13.46299 12.85214,-13.46299c3.19943,0 5.73961,1.4213 7.06414,2.99984h0.20563v-2.18335h5.59446zM359.92327,181.45758c0,-4.72354 -3.15104,-8.17698 -7.16091,-8.17698c-4.0643,0 -7.46936,3.45344 -7.46936,8.17698c0,4.67515 3.40506,8.08021 7.46936,8.08021c4.00987,0 7.16091,-3.40506 7.16091,-8.08021z" fill="#4285f4"/><path d="M374.32371,154.68885v39.31242h-5.74566v-39.31242z" fill="#34a853"/><path d="M396.71364,185.82429l4.57234,3.04822c-1.47573,2.18335 -5.03199,5.94525 -11.17682,5.94525c-7.62056,0 -13.31179,-5.89081 -13.31179,-13.41461c0,-7.9774 5.73961,-13.41461 12.65255,-13.41461c6.96132,0 10.36638,5.54003 11.47923,8.53382l0.61085,1.52411l-17.93251,7.42702c1.37291,2.69139 3.50788,4.0643 6.50167,4.0643c2.99984,0 5.08037,-1.47573 6.60449,-3.71351zM382.6398,180.99793l11.98726,-4.97756c-0.65924,-1.67531 -2.643,-2.84259 -4.97756,-2.84259c-2.99379,0 -7.16091,2.643 -7.00971,7.82015z" fill="#ea4335"/><path d="M259.58589,177.91947v-5.69123h19.17841c0.18749,0.99188 0.28426,2.16521 0.28426,3.4353c0,4.26993 -1.16728,9.54989 -4.92917,13.31179c-3.65908,3.81028 -8.33423,5.84243 -14.52745,5.84243c-11.47923,0 -21.13194,-9.35031 -21.13194,-20.82953c0,-11.47923 9.65271,-20.82953 21.13194,-20.82953c6.35047,0 10.87442,2.4918 14.27343,5.73961l-4.01591,4.01591c-2.43737,-2.28617 -5.73961,-4.0643 -10.26356,-4.0643c-8.38262,0 -14.93872,6.75569 -14.93872,15.1383c0,8.38262 6.5561,15.1383 14.93872,15.1383c5.43721,0 8.53382,-2.18335 10.51758,-4.16712c1.60879,-1.60879 2.6672,-3.90705 3.08451,-7.04599z" fill="#4285f4"/></g></g></g></svg>